<svg width="133" height="29" viewBox="0 0 133 29" fill="none" xmlns="http://www.w3.org/2000/svg">
<g clip-path="url(#clip0_1_35)">
<path d="M9.27093 22.6608C6.72033 25.1839 2.40058 25.1738 1.19419 21.8111C0.957996 21.1527 0.76915 20.4758 0.630255 19.7851C0.0631474 16.9647 0.354208 14.0415 1.46663 11.3848C2.57905 8.72816 4.46287 6.45749 6.87986 4.85992C9.29689 3.26236 12.1385 2.40967 15.0454 2.40967C17.9523 2.40967 20.7939 3.26236 23.2109 4.85992C25.6279 6.45749 27.5117 8.72816 28.6241 11.3848C29.7366 14.0415 30.0276 16.9647 29.4605 19.7851C29.3216 20.4758 29.1328 21.1527 28.8965 21.8111C27.6901 25.1738 23.3704 25.1839 20.8198 22.6608L16.8826 18.766C16.5064 18.3939 16.5453 17.7802 16.6491 17.2642C16.7121 16.9504 16.6797 16.6252 16.556 16.3297C16.4322 16.0341 16.2227 15.7815 15.9538 15.6038C15.6849 15.4261 15.3688 15.3312 15.0454 15.3312C14.722 15.3312 14.4059 15.4261 14.137 15.6038C13.8681 15.7815 13.6585 16.0341 13.5348 16.3297C13.411 16.6252 13.3786 16.9504 13.4418 17.2642C13.5455 17.7802 13.5843 18.3939 13.2082 18.766L9.27093 22.6608Z" fill="url(#paint0_linear_1_35)"/>
</g>
<path d="M39.304 26.16C38.712 26.16 38.104 25.976 37.48 25.608C36.872 25.24 36.248 24.64 35.608 23.808C35.112 23.152 34.752 22.4 34.528 21.552C34.32 20.704 34.216 19.864 34.216 19.032C34.216 18.632 34.24 18.24 34.288 17.856C34.352 17.424 34.472 16.936 34.648 16.392C34.824 15.832 35.008 15.376 35.2 15.024C35.264 14.896 35.352 14.768 35.464 14.64C35.592 14.512 35.672 14.448 35.704 14.448C35.72 14.448 35.728 14.464 35.728 14.496C35.728 14.56 35.648 14.752 35.488 15.072C35.248 15.552 35.072 16.064 34.96 16.608C34.848 17.136 34.792 17.68 34.792 18.24C34.792 19.264 34.952 20.272 35.272 21.264C35.608 22.272 36.048 23.136 36.592 23.856C37.104 24.544 37.6 25.04 38.08 25.344C38.576 25.648 39.04 25.8 39.472 25.8C40.112 25.8 40.68 25.552 41.176 25.056C41.688 24.56 42.112 23.952 42.448 23.232C42.688 22.736 42.888 22.08 43.048 21.264C43.208 20.464 43.328 19.568 43.408 18.576C43.504 17.568 43.552 16.528 43.552 15.456C43.552 14.368 43.504 13.296 43.408 12.24C43.312 11.184 43.152 10.192 42.928 9.264C42.72 8.336 42.456 7.536 42.136 6.864C41.816 6.192 41.424 5.712 40.96 5.424C40.832 5.344 40.712 5.304 40.6 5.304C40.472 5.304 40.344 5.344 40.216 5.424C40.104 5.504 40 5.608 39.904 5.736C39.696 6.024 39.544 6.424 39.448 6.936C39.352 7.432 39.304 7.968 39.304 8.544C39.304 9.216 39.36 9.896 39.472 10.584C39.584 11.256 39.736 11.856 39.928 12.384C40.136 12.896 40.368 13.256 40.624 13.464C40.768 13.592 40.904 13.656 41.032 13.656C41.144 13.656 41.232 13.632 41.296 13.584C41.36 13.52 41.424 13.488 41.488 13.488C41.6 13.488 41.616 13.536 41.536 13.632C41.456 13.712 41.336 13.792 41.176 13.872C41.016 13.952 40.84 13.984 40.648 13.968C40.216 13.92 39.856 13.68 39.568 13.248C39.28 12.816 39.064 12.272 38.92 11.616C38.776 10.944 38.704 10.256 38.704 9.552C38.704 8.8 38.776 8.08 38.92 7.392C39.08 6.704 39.312 6.144 39.616 5.712C39.936 5.28 40.32 5.064 40.768 5.064C40.992 5.064 41.208 5.112 41.416 5.208C42.024 5.464 42.52 5.96 42.904 6.696C43.304 7.416 43.608 8.28 43.816 9.288C44.04 10.28 44.192 11.32 44.272 12.408C44.368 13.496 44.416 14.544 44.416 15.552C44.416 16.368 44.392 17.112 44.344 17.784C44.312 18.456 44.272 19 44.224 19.416C44.128 20.296 43.936 21.136 43.648 21.936C43.36 22.752 43 23.472 42.568 24.096C42.136 24.736 41.64 25.24 41.08 25.608C40.52 25.976 39.928 26.16 39.304 26.16ZM44.5356 24.48C44.3756 24.48 44.2476 24.432 44.1516 24.336C44.0396 24.24 44.0236 24.128 44.1036 24C44.3276 23.664 44.5436 23.184 44.7516 22.56C44.9436 21.952 45.1116 21.312 45.2556 20.64C45.4156 19.968 45.5436 19.36 45.6396 18.816C45.7516 18.256 45.8316 17.864 45.8796 17.64C45.5916 17.368 45.4476 17.064 45.4476 16.728C45.4476 16.472 45.5036 16.256 45.6156 16.08C45.7436 15.904 45.8396 15.824 45.9036 15.84C45.9356 15.84 45.9756 15.856 46.0236 15.888C46.0876 15.904 46.1196 15.928 46.1196 15.96C46.2156 15.208 46.2956 14.464 46.3596 13.728C46.4236 12.976 46.4556 12.288 46.4556 11.664C46.4556 11.152 46.4316 10.696 46.3836 10.296C46.3356 9.896 46.2636 9.576 46.1676 9.336C46.0716 9.096 46.0236 8.912 46.0236 8.784C46.0236 8.608 46.0716 8.52 46.1676 8.52C46.2796 8.52 46.3676 8.592 46.4316 8.736C46.6076 9.088 46.7356 9.64 46.8156 10.392C46.9116 11.144 46.9596 12 46.9596 12.96C46.9596 13.616 46.9436 14.312 46.9116 15.048C46.8796 15.768 46.8236 16.488 46.7436 17.208C47.0316 16.952 47.3276 16.704 47.6316 16.464C47.9356 16.208 48.1996 15.944 48.4236 15.672V15.648C48.4236 15.616 48.4076 15.584 48.3756 15.552C48.3596 15.52 48.3516 15.472 48.3516 15.408C48.3516 15.296 48.4316 15.16 48.5916 15C48.7516 14.84 48.9596 14.616 49.2156 14.328C49.4876 14.024 49.7676 13.752 50.0556 13.512C50.3436 13.256 50.6076 13.136 50.8476 13.152C51.0396 13.152 51.1356 13.216 51.1356 13.344C51.1356 13.488 50.9996 13.704 50.7276 13.992C50.4556 14.28 50.1276 14.584 49.7436 14.904C49.3756 15.224 49.0316 15.52 48.7116 15.792C48.4076 16.048 48.2076 16.224 48.1116 16.32L47.1996 17.328L46.7196 17.832C46.9276 18.36 47.1676 18.88 47.4396 19.392C47.7116 19.904 48.0156 20.328 48.3516 20.664C48.7036 21 49.0636 21.168 49.4316 21.168C49.8156 21.168 50.2076 20.936 50.6076 20.472C50.8796 20.136 51.1116 19.76 51.3036 19.344C51.4956 18.928 51.6556 18.616 51.7836 18.408C51.8636 18.248 51.9436 18.144 52.0236 18.096C52.1036 18.032 52.1676 18 52.2156 18C52.3276 18 52.3676 18.08 52.3356 18.24C52.2716 18.448 52.1596 18.712 51.9996 19.032C51.8396 19.352 51.6796 19.656 51.5196 19.944C51.3756 20.216 51.2636 20.408 51.1836 20.52C50.8796 20.968 50.5756 21.296 50.2716 21.504C49.9676 21.712 49.6716 21.816 49.3836 21.816C49.0156 21.816 48.6556 21.68 48.3036 21.408C47.9516 21.136 47.6236 20.784 47.3196 20.352C47.0316 19.92 46.7676 19.464 46.5276 18.984C46.3516 20.2 46.1356 21.288 45.8796 22.248C45.6236 23.224 45.3436 23.896 45.0396 24.264C44.8956 24.408 44.7276 24.48 44.5356 24.48ZM58.1269 22.128C57.7429 22.128 57.4549 21.96 57.2629 21.624C57.0709 21.304 56.9749 20.896 56.9749 20.4C56.9749 20.048 57.0469 19.608 57.1909 19.08C57.3349 18.552 57.5349 18 57.7909 17.424C58.0469 16.848 58.3349 16.312 58.6549 15.816C58.9749 15.304 59.3029 14.896 59.6389 14.592C59.9909 14.272 60.3349 14.112 60.6709 14.112C60.9429 14.112 61.1349 14.216 61.2469 14.424C61.3749 14.616 61.4389 14.824 61.4389 15.048C61.4389 15.24 61.3989 15.416 61.3189 15.576C61.2549 15.72 61.1589 15.792 61.0309 15.792C60.9029 15.792 60.8069 15.736 60.7429 15.624C60.6949 15.496 60.6469 15.368 60.5989 15.24C60.5669 15.112 60.4789 15.048 60.3349 15.048C60.0469 15.048 59.7589 15.232 59.4709 15.6C59.1829 15.968 58.9189 16.432 58.6789 16.992C58.4389 17.552 58.2469 18.136 58.1029 18.744C57.9589 19.336 57.8869 19.864 57.8869 20.328C57.8869 20.664 57.9269 20.928 58.0069 21.12C58.1029 21.328 58.2549 21.432 58.4629 21.432C58.7349 21.432 59.0069 21.264 59.2789 20.928C59.5669 20.576 59.8469 20.128 60.1189 19.584C60.3909 19.024 60.6389 18.44 60.8629 17.832C61.1029 17.224 61.3029 16.656 61.4629 16.128C61.6389 15.584 61.7749 15.152 61.8709 14.832C61.9989 13.712 62.1509 12.584 62.3269 11.448C62.5189 10.312 62.7989 9.208 63.1669 8.136C63.2149 7.96 63.2869 7.808 63.3829 7.68C63.4949 7.552 63.6069 7.488 63.7189 7.488C63.8469 7.488 63.9509 7.576 64.0309 7.752C64.1269 7.928 64.1749 8.128 64.1749 8.352C64.1749 8.528 64.1429 8.712 64.0789 8.904C64.0149 9.096 63.9349 9.352 63.8389 9.672C63.7269 10.056 63.5829 10.568 63.4069 11.208C63.2469 11.832 63.0789 12.544 62.9029 13.344C62.7269 14.128 62.5749 14.968 62.4469 15.864C62.3349 16.744 62.2789 17.624 62.2789 18.504C62.2789 19.176 62.3269 19.648 62.4229 19.92C62.5189 20.192 62.6469 20.328 62.8069 20.328C62.9829 20.328 63.1749 20.216 63.3829 19.992C63.6069 19.768 63.8229 19.496 64.0309 19.176C64.2549 18.856 64.4549 18.536 64.6309 18.216C64.8069 17.88 64.9429 17.616 65.0389 17.424C65.2149 17.072 65.3509 16.896 65.4469 16.896C65.5109 16.896 65.5429 16.968 65.5429 17.112C65.5429 17.224 65.5189 17.344 65.4709 17.472C65.3749 17.68 65.3109 17.84 65.2789 17.952C65.2469 18.048 65.2069 18.144 65.1589 18.24C65.1269 18.336 65.0469 18.488 64.9189 18.696C64.8069 18.888 64.6309 19.152 64.3909 19.488C64.1509 19.808 63.8789 20.104 63.5749 20.376C63.2709 20.632 62.9669 20.76 62.6629 20.76C62.3589 20.76 62.1269 20.632 61.9669 20.376C61.8229 20.12 61.7269 19.792 61.6789 19.392C61.6469 18.976 61.6309 18.552 61.6309 18.12C61.6309 17.592 61.6549 17.032 61.7029 16.44C61.5909 16.824 61.4389 17.28 61.2469 17.808C61.0549 18.32 60.8389 18.84 60.5989 19.368C60.3589 19.896 60.1029 20.376 59.8309 20.808C59.6069 21.16 59.3589 21.464 59.0869 21.72C58.8149 21.992 58.4949 22.128 58.1269 22.128ZM66.6663 21.312C66.0903 21.312 65.5863 20.976 65.1543 20.304C64.7383 19.616 64.5303 18.536 64.5303 17.064C64.5303 16.104 64.6503 15.336 64.8903 14.76C65.1303 14.168 65.4263 13.736 65.7783 13.464C66.1303 13.192 66.4663 13.056 66.7863 13.056C67.1063 13.056 67.3783 13.168 67.6023 13.392C67.8263 13.6 67.9383 13.904 67.9383 14.304C67.9383 14.688 67.8263 15.096 67.6023 15.528C67.3783 15.944 67.1063 16.328 66.7863 16.68C66.4823 17.016 66.1783 17.24 65.8743 17.352C65.8103 17.384 65.7303 17.4 65.6343 17.4C65.5703 17.4 65.5383 17.376 65.5383 17.328C65.5383 17.2 65.6663 17.056 65.9223 16.896C66.2423 16.672 66.5463 16.336 66.8343 15.888C67.1223 15.424 67.2663 15.016 67.2663 14.664C67.2663 14.456 67.2183 14.296 67.1223 14.184C67.0263 14.056 66.9143 13.992 66.7863 13.992C66.5463 13.992 66.2823 14.184 65.9943 14.568C65.7223 14.936 65.5223 15.576 65.3943 16.488C65.3623 16.744 65.3303 16.992 65.2983 17.232C65.2823 17.456 65.2743 17.68 65.2743 17.904C65.2743 18.8 65.4103 19.504 65.6823 20.016C65.9543 20.512 66.3143 20.76 66.7623 20.76C67.1463 20.76 67.5783 20.536 68.0583 20.088C68.5383 19.624 69.0103 18.904 69.4743 17.928C69.5863 17.672 69.7143 17.544 69.8583 17.544C69.9543 17.544 70.0023 17.608 70.0023 17.736C70.0023 17.848 69.9703 17.968 69.9062 18.096C69.4903 19.12 68.9863 19.912 68.3943 20.472C67.8023 21.032 67.2263 21.312 66.6663 21.312ZM71.3761 22.608C71.2801 22.608 71.1841 22.552 71.0881 22.44C71.0081 22.328 70.9521 22.152 70.9201 21.912C70.9041 21.848 70.8961 21.752 70.8961 21.624C70.8961 21.512 70.8961 21.376 70.8961 21.216C70.8961 20.896 70.8961 20.576 70.8961 20.256C70.9121 19.92 70.9201 19.696 70.9201 19.584C70.9201 18.912 70.8881 18.232 70.8241 17.544C70.7601 16.856 70.6321 16.28 70.4401 15.816C70.2481 15.352 69.9441 15.12 69.5281 15.12C69.2721 15.12 69.0321 15.216 68.8081 15.408C68.6001 15.584 68.4241 15.768 68.2801 15.96C68.1201 16.152 68.0081 16.248 67.9441 16.248C67.8801 16.248 67.8481 16.216 67.8481 16.152C67.8481 16.072 67.9201 15.944 68.0641 15.768C68.2081 15.576 68.3121 15.448 68.3761 15.384C68.6161 15.144 68.8801 14.928 69.1681 14.736C69.4721 14.544 69.7521 14.448 70.0081 14.448C70.4081 14.448 70.7201 14.672 70.9441 15.12C71.1681 15.552 71.3281 16.104 71.4241 16.776C71.5201 17.432 71.5681 18.096 71.5681 18.768C71.5681 19.104 71.5601 19.432 71.5441 19.752C71.5281 20.056 71.5041 20.336 71.4721 20.592C71.6161 20.192 71.8001 19.72 72.0241 19.176C72.2481 18.616 72.5041 18.048 72.7921 17.472C73.0961 16.88 73.4161 16.328 73.7521 15.816C74.0881 15.304 74.4481 14.88 74.8321 14.544C75.0561 14.352 75.2241 14.256 75.3361 14.256C75.4321 14.256 75.4801 14.304 75.4801 14.4C75.4801 14.56 75.3441 14.76 75.0721 15C74.5121 15.496 74.0401 16.064 73.6561 16.704C73.2721 17.344 72.9601 18 72.7201 18.672C72.4961 19.344 72.3281 19.976 72.2161 20.568C72.1041 21.16 72.0321 21.648 72.0001 22.032C71.9841 22.144 71.9121 22.264 71.7841 22.392C71.6561 22.536 71.5201 22.608 71.3761 22.608ZM76.8381 21.312C76.2621 21.312 75.7581 20.976 75.3261 20.304C74.9101 19.616 74.7021 18.536 74.7021 17.064C74.7021 16.104 74.8221 15.336 75.0621 14.76C75.3021 14.168 75.5981 13.736 75.9501 13.464C76.3021 13.192 76.6381 13.056 76.9581 13.056C77.2781 13.056 77.5501 13.168 77.7741 13.392C77.9981 13.6 78.1101 13.904 78.1101 14.304C78.1101 14.688 77.9981 15.096 77.7741 15.528C77.5501 15.944 77.2781 16.328 76.9581 16.68C76.6541 17.016 76.3501 17.24 76.0461 17.352C75.9821 17.384 75.9021 17.4 75.8061 17.4C75.7421 17.4 75.7101 17.376 75.7101 17.328C75.7101 17.2 75.8381 17.056 76.0941 16.896C76.4141 16.672 76.7181 16.336 77.0061 15.888C77.2941 15.424 77.4381 15.016 77.4381 14.664C77.4381 14.456 77.3901 14.296 77.2941 14.184C77.1981 14.056 77.0861 13.992 76.9581 13.992C76.7181 13.992 76.4541 14.184 76.1661 14.568C75.8941 14.936 75.6941 15.576 75.5661 16.488C75.5341 16.744 75.5021 16.992 75.4701 17.232C75.4541 17.456 75.4461 17.68 75.4461 17.904C75.4461 18.8 75.5821 19.504 75.8541 20.016C76.1261 20.512 76.4861 20.76 76.9341 20.76C77.3181 20.76 77.7501 20.536 78.2301 20.088C78.7101 19.624 79.1821 18.904 79.6461 17.928C79.7581 17.672 79.8861 17.544 80.0301 17.544C80.1261 17.544 80.1741 17.608 80.1741 17.736C80.1741 17.848 80.1421 17.968 80.0781 18.096C79.6621 19.12 79.1581 19.912 78.5661 20.472C77.9741 21.032 77.3981 21.312 76.8381 21.312ZM83.1319 24.816C82.9239 24.816 82.7239 24.736 82.5319 24.576C82.3559 24.416 82.2039 24.256 82.0759 24.096C81.5639 23.504 81.1319 22.72 80.7799 21.744C80.4439 20.768 80.1879 19.696 80.0119 18.528C79.8359 17.344 79.7479 16.144 79.7479 14.928C79.7479 13.792 79.8199 12.688 79.9639 11.616C80.1239 10.544 80.3639 9.568 80.6839 8.688C81.0039 7.808 81.4039 7.104 81.8839 6.576C82.5079 5.872 83.1079 5.52 83.6839 5.52C84.0359 5.52 84.3159 5.68 84.5239 6C84.7479 6.304 84.8599 6.792 84.8599 7.464C84.8599 8.104 84.7319 8.92 84.4759 9.912C84.2359 10.888 83.8199 12.056 83.2279 13.416C83.0199 13.864 82.7959 14.312 82.5559 14.76C82.3319 15.208 82.0919 15.68 81.8359 16.176C81.7399 16.368 81.6599 16.464 81.5959 16.464C81.5639 16.464 81.5479 16.432 81.5479 16.368C81.5479 16.24 81.6039 16.072 81.7159 15.864C83.1719 13.128 83.8999 10.408 83.8999 7.704C83.8999 6.632 83.6759 6.096 83.2279 6.096C82.9079 6.096 82.5319 6.408 82.0999 7.032C81.5079 7.912 81.0999 8.96 80.8759 10.176C80.6519 11.376 80.5399 12.592 80.5399 13.824C80.5399 14.752 80.5799 15.656 80.6599 16.536C80.7399 17.4 80.8359 18.184 80.9479 18.888C80.9959 19.192 81.0679 19.6 81.1639 20.112C81.2599 20.624 81.3879 21.16 81.5479 21.72C81.7079 22.296 81.8839 22.816 82.0759 23.28C82.2839 23.76 82.5079 24.104 82.7479 24.312C82.8119 24.36 82.8759 24.408 82.9399 24.456C83.0199 24.52 83.1079 24.56 83.2039 24.576C83.3479 24.576 83.4199 24.616 83.4199 24.696C83.4199 24.776 83.3239 24.816 83.1319 24.816ZM85.8672 21.84C85.3392 21.84 84.9072 21.68 84.5712 21.36C84.2512 21.04 84.0112 20.632 83.8512 20.136C83.6912 19.624 83.6112 19.088 83.6112 18.528C83.6112 18.192 83.6432 17.872 83.7072 17.568C83.7712 17.264 83.8352 17.016 83.8992 16.824C83.8832 16.712 83.8672 16.6 83.8512 16.488C83.8512 16.36 83.8512 16.232 83.8512 16.104C83.8512 15.64 83.8992 15.136 83.9952 14.592C84.0912 14.048 84.2432 13.528 84.4512 13.032C84.6752 12.536 84.9472 12.136 85.2672 11.832C85.6032 11.512 86.0112 11.352 86.4912 11.352C86.9072 11.352 87.3152 11.528 87.7152 11.88C88.1152 12.216 88.4672 12.712 88.7712 13.368C88.9472 13.736 89.0672 14.136 89.1312 14.568C89.2112 14.984 89.2512 15.408 89.2512 15.84C89.2512 16.432 89.1872 17.024 89.0592 17.616C88.9472 18.192 88.7792 18.736 88.5552 19.248C88.3952 19.616 88.1792 20.008 87.9072 20.424C87.6512 20.824 87.3552 21.16 87.0192 21.432C86.6832 21.704 86.2992 21.84 85.8672 21.84ZM85.9872 21.312C86.5312 21.312 87.0352 20.936 87.4992 20.184C87.8352 19.656 88.0752 19.056 88.2192 18.384C88.3632 17.696 88.4352 17.008 88.4352 16.32C88.4352 15.808 88.4032 15.312 88.3392 14.832C88.2752 14.352 88.1792 13.888 88.0512 13.44C87.9392 13.04 87.7472 12.688 87.4752 12.384C87.2192 12.064 86.8512 11.928 86.3712 11.976C85.9872 12.008 85.6512 12.2 85.3632 12.552C85.0752 12.904 84.8512 13.304 84.6912 13.752C84.5472 14.184 84.4752 14.56 84.4752 14.88C84.4752 15.056 84.4992 15.192 84.5472 15.288C84.5952 15.16 84.7152 14.952 84.9072 14.664C85.0992 14.36 85.3152 14.088 85.5552 13.848C85.7952 13.592 86.0192 13.464 86.2272 13.464C86.4032 13.464 86.4912 13.536 86.4912 13.68C86.2832 13.696 86.0752 13.824 85.8672 14.064C85.6752 14.288 85.4912 14.56 85.3152 14.88C85.1552 15.2 85.0192 15.52 84.9072 15.84C84.8112 16.144 84.7392 16.384 84.6912 16.56C84.6752 16.624 84.6512 16.704 84.6192 16.8C84.5872 16.896 84.5712 16.992 84.5712 17.088C84.5712 17.2 84.6352 17.384 84.7632 17.64C84.8912 17.88 85.0992 18.104 85.3872 18.312C85.6752 18.52 86.0672 18.624 86.5632 18.624C86.7072 18.624 86.8592 18.608 87.0192 18.576C87.1792 18.544 87.3312 18.512 87.4752 18.48L87.6432 18.432C87.6752 18.432 87.6912 18.448 87.6912 18.48C87.6912 18.528 87.6352 18.592 87.5232 18.672C87.4272 18.736 87.3392 18.784 87.2592 18.816C87.0352 18.928 86.7872 18.984 86.5152 18.984C86.1152 18.984 85.7312 18.864 85.3632 18.624C85.0112 18.368 84.6992 18.08 84.4272 17.76C84.4112 17.888 84.4032 18.016 84.4032 18.144C84.4032 18.256 84.4032 18.368 84.4032 18.48C84.4032 19.408 84.5632 20.112 84.8832 20.592C85.2032 21.072 85.5712 21.312 85.9872 21.312ZM90.0783 28.824C89.8383 28.824 89.6463 28.664 89.5023 28.344C89.3582 28.04 89.2542 27.672 89.1902 27.24C89.1102 26.808 89.0702 26.408 89.0702 26.04C89.0702 25.864 89.0782 25.608 89.0942 25.272C89.1102 24.936 89.1342 24.576 89.1662 24.192C89.1982 23.808 89.2302 23.448 89.2622 23.112C89.2942 22.776 89.3182 22.52 89.3342 22.344C89.4783 21.256 89.6943 20.208 89.9823 19.2C90.2703 18.176 90.5823 17.176 90.9183 16.2C90.9343 16.168 90.9503 16.12 90.9663 16.056C90.9983 15.992 91.0223 15.96 91.0383 15.96V15.888C90.8783 15.952 90.6703 16.104 90.4143 16.344C90.1743 16.584 89.9983 16.768 89.8863 16.896C89.7743 17.008 89.6703 17.128 89.5743 17.256C89.4783 17.368 89.3662 17.424 89.2382 17.424C89.1102 17.424 89.0462 17.352 89.0462 17.208C89.0462 17.032 89.1422 16.856 89.3342 16.68C89.5103 16.488 89.7103 16.312 89.9343 16.152C90.1583 15.976 90.3983 15.816 90.6543 15.672C90.9263 15.528 91.1183 15.424 91.2303 15.36C91.2783 15.328 91.3103 15.288 91.3263 15.24C91.3583 15.192 91.3823 15.144 91.3983 15.096C91.5103 14.92 91.6223 14.752 91.7343 14.592C91.8623 14.432 92.0303 14.32 92.2383 14.256C92.3823 14.272 92.5423 14.304 92.7183 14.352C92.8943 14.4 92.9983 14.512 93.0303 14.688C93.0303 14.752 93.0463 14.784 93.0783 14.784V14.808C93.1583 14.808 93.2543 14.8 93.3663 14.784C93.4943 14.752 93.6383 14.736 93.7983 14.736C94.4223 14.736 94.9263 14.896 95.3103 15.216C95.6943 15.536 95.8863 15.96 95.8863 16.488C95.8863 16.984 95.7423 17.52 95.4543 18.096C95.1663 18.656 94.8543 19.112 94.5183 19.464C93.9903 19.992 93.4303 20.456 92.8383 20.856C92.2623 21.24 91.7663 21.432 91.3503 21.432C91.0943 21.432 90.9183 21.36 90.8223 21.216C90.7423 21.088 90.7023 20.928 90.7023 20.736C90.7023 20.464 90.8223 20.192 91.0623 19.92C91.3023 19.648 91.5423 19.416 91.7823 19.224C92.0543 19 92.3343 18.792 92.6223 18.6C92.9263 18.408 93.1823 18.248 93.3903 18.12C93.5023 18.04 93.6063 17.968 93.7023 17.904C93.8143 17.84 93.9103 17.808 93.9903 17.808C94.0383 17.808 94.0623 17.832 94.0623 17.88C94.0623 17.912 93.9663 17.992 93.7743 18.12C93.5983 18.248 93.4463 18.36 93.3183 18.456C93.2223 18.536 93.0543 18.68 92.8143 18.888C92.5743 19.08 92.3183 19.304 92.0463 19.56C91.7903 19.8 91.5663 20.048 91.3743 20.304C91.1823 20.56 91.0863 20.784 91.0863 20.976C91.3423 20.976 91.6223 20.872 91.9263 20.664C92.2463 20.44 92.5583 20.184 92.8623 19.896C93.1823 19.608 93.4543 19.368 93.6783 19.176C93.8863 18.984 94.1343 18.72 94.4223 18.384C94.7103 18.048 94.9663 17.688 95.1903 17.304C95.4143 16.92 95.5263 16.568 95.5263 16.248C95.5263 15.832 95.3663 15.528 95.0463 15.336C94.7423 15.128 94.3743 15.024 93.9423 15.024C93.7983 15.024 93.6143 15.04 93.3903 15.072C93.1663 15.104 93.0303 15.136 92.9823 15.168C92.6303 15.712 92.2943 16.264 91.9743 16.824C91.6543 17.384 91.3583 17.96 91.0863 18.552C90.6383 19.512 90.2783 20.488 90.0063 21.48C89.7503 22.472 89.5823 23.544 89.5023 24.696C89.4863 24.968 89.4623 25.256 89.4303 25.56C89.4143 25.864 89.4143 26.168 89.4303 26.472C89.4463 26.632 89.4783 26.888 89.5263 27.24C89.5743 27.592 89.6543 27.912 89.7663 28.2C89.8783 28.488 90.0303 28.632 90.2223 28.632C90.2383 28.632 90.2703 28.632 90.3183 28.632C90.3663 28.632 90.3903 28.64 90.3903 28.656V28.728C90.2783 28.792 90.1743 28.824 90.0783 28.824ZM98.2131 21.312C97.6371 21.312 97.1331 20.976 96.7011 20.304C96.2851 19.616 96.0771 18.536 96.0771 17.064C96.0771 16.104 96.1971 15.336 96.4371 14.76C96.6771 14.168 96.9731 13.736 97.3251 13.464C97.6771 13.192 98.0131 13.056 98.3331 13.056C98.6531 13.056 98.9251 13.168 99.1491 13.392C99.3731 13.6 99.4851 13.904 99.4851 14.304C99.4851 14.688 99.3731 15.096 99.1491 15.528C98.9251 15.944 98.6531 16.328 98.3331 16.68C98.0291 17.016 97.7251 17.24 97.4211 17.352C97.3571 17.384 97.2771 17.4 97.1811 17.4C97.1171 17.4 97.0851 17.376 97.0851 17.328C97.0851 17.2 97.2131 17.056 97.4691 16.896C97.7891 16.672 98.0931 16.336 98.3811 15.888C98.6691 15.424 98.8131 15.016 98.8131 14.664C98.8131 14.456 98.7651 14.296 98.6691 14.184C98.5731 14.056 98.4611 13.992 98.3331 13.992C98.0931 13.992 97.8291 14.184 97.5411 14.568C97.2691 14.936 97.0691 15.576 96.9411 16.488C96.9091 16.744 96.8771 16.992 96.8451 17.232C96.8291 17.456 96.8211 17.68 96.8211 17.904C96.8211 18.8 96.9571 19.504 97.2291 20.016C97.5011 20.512 97.8611 20.76 98.3091 20.76C98.6931 20.76 99.1251 20.536 99.6051 20.088C100.085 19.624 100.557 18.904 101.021 17.928C101.133 17.672 101.261 17.544 101.405 17.544C101.501 17.544 101.549 17.608 101.549 17.736C101.549 17.848 101.517 17.968 101.453 18.096C101.037 19.12 100.533 19.912 99.9411 20.472C99.3491 21.032 98.7731 21.312 98.2131 21.312ZM104.027 22.2C103.515 22.2 103.123 21.96 102.851 21.48C102.579 21.016 102.443 20.504 102.443 19.944C102.443 19.416 102.531 18.864 102.707 18.288C102.883 17.712 103.099 17.144 103.355 16.584C103.627 16.024 103.907 15.512 104.195 15.048C103.907 15.16 103.635 15.216 103.379 15.216C103.251 15.216 103.139 15.2 103.043 15.168C102.947 15.136 102.867 15.112 102.803 15.096C102.723 15.288 102.579 15.608 102.371 16.056C102.179 16.504 101.971 16.976 101.747 17.472C101.539 17.952 101.355 18.36 101.195 18.696C100.939 19.24 100.715 19.512 100.523 19.512C100.427 19.512 100.379 19.448 100.379 19.32C100.379 19.224 100.419 19.096 100.499 18.936C100.867 18.248 101.211 17.568 101.531 16.896C101.867 16.224 102.171 15.576 102.443 14.952C102.411 14.872 102.379 14.768 102.347 14.64C102.315 14.496 102.299 14.344 102.299 14.184C102.299 14.008 102.315 13.824 102.347 13.632C102.395 13.424 102.459 13.224 102.539 13.032C102.587 12.92 102.675 12.76 102.803 12.552C102.931 12.328 103.075 12.128 103.235 11.952C103.395 11.76 103.547 11.664 103.691 11.664C103.963 11.664 104.099 11.808 104.099 12.096C104.099 12.368 104.011 12.68 103.835 13.032C103.675 13.384 103.507 13.712 103.331 14.016C103.155 14.304 103.067 14.52 103.067 14.664C103.067 14.792 103.131 14.856 103.259 14.856C103.435 14.856 103.651 14.768 103.907 14.592C104.179 14.4 104.395 14.224 104.555 14.064C104.635 13.984 104.763 13.864 104.939 13.704C105.115 13.528 105.283 13.44 105.443 13.44C105.603 13.44 105.707 13.488 105.755 13.584C105.819 13.68 105.851 13.792 105.851 13.92C105.851 14.064 105.787 14.248 105.659 14.472C105.531 14.68 105.379 14.888 105.203 15.096C105.043 15.304 104.907 15.48 104.795 15.624C104.571 15.96 104.315 16.384 104.027 16.896C103.739 17.408 103.491 17.96 103.283 18.552C103.075 19.128 102.971 19.68 102.971 20.208C102.971 20.56 103.059 20.928 103.235 21.312C103.411 21.696 103.651 21.888 103.955 21.888C104.227 21.888 104.515 21.744 104.819 21.456C105.139 21.168 105.435 20.824 105.707 20.424C105.995 20.024 106.243 19.64 106.451 19.272C106.675 18.904 106.827 18.648 106.907 18.504C106.939 18.424 106.995 18.328 107.075 18.216C107.155 18.088 107.251 18.024 107.363 18.024C107.459 18.024 107.507 18.072 107.507 18.168C107.507 18.248 107.483 18.344 107.435 18.456C107.403 18.552 107.371 18.64 107.339 18.72C107.195 19.056 107.019 19.408 106.811 19.776C106.603 20.144 106.459 20.392 106.379 20.52C106.155 20.888 105.819 21.256 105.371 21.624C104.939 22.008 104.491 22.2 104.027 22.2ZM109.111 22.032C108.903 22.032 108.751 21.96 108.655 21.816C108.575 21.688 108.535 21.56 108.535 21.432C108.535 21.176 108.647 20.912 108.871 20.64C108.951 20.544 109.063 20.416 109.207 20.256C109.351 20.08 109.455 19.944 109.519 19.848C109.311 19.56 109.031 19.296 108.679 19.056C108.327 18.816 107.983 18.512 107.647 18.144C107.343 17.808 107.087 17.4 106.879 16.92C106.671 16.424 106.567 15.952 106.567 15.504C106.567 14.976 106.687 14.472 106.927 13.992C107.167 13.512 107.463 13.096 107.815 12.744C108.199 12.36 108.623 12.056 109.087 11.832C109.551 11.592 110.031 11.472 110.527 11.472C110.863 11.472 111.191 11.552 111.511 11.712C111.831 11.872 111.991 12.136 111.991 12.504C111.991 12.936 111.895 13.152 111.703 13.152C111.623 13.152 111.567 13.072 111.535 12.912C111.519 12.832 111.511 12.752 111.511 12.672C111.511 12.576 111.511 12.512 111.511 12.48C111.511 12.32 111.439 12.184 111.295 12.072C111.151 11.944 110.991 11.88 110.815 11.88C110.447 11.88 110.039 12.024 109.591 12.312C109.143 12.6 108.767 12.936 108.463 13.32C108.159 13.72 107.911 14.176 107.719 14.688C107.527 15.184 107.431 15.664 107.431 16.128C107.431 16.704 107.559 17.2 107.815 17.616C108.071 18.032 108.375 18.4 108.727 18.72C109.095 19.04 109.423 19.352 109.711 19.656C109.855 19.48 110.007 19.312 110.167 19.152C110.343 18.992 110.503 18.864 110.647 18.768C110.775 18.688 110.863 18.648 110.911 18.648C110.959 18.648 110.983 18.672 110.983 18.72C110.983 18.8 110.911 18.896 110.767 19.008C110.735 19.04 110.639 19.136 110.479 19.296C110.335 19.44 110.159 19.624 109.951 19.848C110.079 19.992 110.183 20.144 110.263 20.304C110.343 20.464 110.383 20.64 110.383 20.832C110.383 21.088 110.239 21.352 109.951 21.624C109.663 21.896 109.383 22.032 109.111 22.032ZM109.375 21.384C109.487 21.384 109.591 21.28 109.687 21.072C109.799 20.88 109.855 20.688 109.855 20.496C109.855 20.4 109.839 20.312 109.807 20.232C109.775 20.152 109.751 20.104 109.735 20.088C109.607 20.248 109.487 20.424 109.375 20.616C109.279 20.792 109.231 20.952 109.231 21.096C109.231 21.288 109.279 21.384 109.375 21.384Z" fill="black"/>
<defs>
<linearGradient id="paint0_linear_1_35" x1="28.4051" y1="9.67916" x2="2.31694" y2="9.67916" gradientUnits="userSpaceOnUse">
<stop stop-color="#161490"/>
<stop offset="0.510417" stop-color="#7476ED"/>
<stop offset="1" stop-color="#E56F8C"/>
</linearGradient>
<clipPath id="clip0_1_35">
<rect width="132.391" height="24.5027" fill="white" transform="translate(0.347839 2.40967)"/>
</clipPath>
</defs>
</svg>
